<svg width="98" height="99" viewBox="0 0 98 99" fill="none" xmlns="http://www.w3.org/2000/svg">
<circle cx="49" cy="49.5" r="49" fill="#18AD8F"/>
<g clip-path="url(#clip0_122_372)">
<path d="M39 52V44.8284L45 38.8284L51 44.8284V52H39Z" fill="white"/>
<path fill-rule="evenodd" clip-rule="evenodd" d="M19 46C19 31.6406 30.6406 20 45 20C59.3596 20 71 31.6406 71 46C71 52.4597 68.6444 58.3692 64.7448 62.9164L78.4144 76.5856L75.586 79.414L61.9164 65.7448C57.3695 69.644 51.4598 72 45 72C30.6406 72 19 60.3596 19 46ZM54.4142 42.5858L46.4142 34.5858C45.6332 33.8047 44.3668 33.8047 43.5858 34.5858L35.5858 42.5858C35.2107 42.9608 35 43.4696 35 44V54C35 55.1046 35.8954 56 37 56H53C54.1046 56 55 55.1046 55 54V44C55 43.4696 54.7893 42.9608 54.4142 42.5858Z" fill="white"/>
</g>
<defs>
<clipPath id="clip0_122_372">
<rect width="60" height="60" fill="white" transform="translate(19 20)"/>
</clipPath>
</defs>
</svg>
