<svg width="98" height="99" viewBox="0 0 98 99" fill="none" xmlns="http://www.w3.org/2000/svg">
<circle cx="49" cy="49.5" r="49" fill="#18AD8F"/>
<path d="M51.5156 57.9125L59.6222 61.3123C60.8018 61.8327 61.5766 63.0123 61.5881 64.2959L61.2065 76.8432H48.4858C48.4858 76.8432 43.8949 69.3263 43.4784 68.7945C43.2009 68.4013 43.1083 67.6613 43.1083 67.6613C42.9696 67.002 42.9581 60.7344 42.9581 60.7344C42.9581 59.6935 43.837 58.8263 44.8661 58.8263C45.907 58.8263 46.7742 59.7052 46.7742 60.7344V65.2559C46.7742 65.5105 46.9708 65.7186 47.2368 65.7186C47.2947 65.7186 47.3641 65.7071 47.4103 65.6839C47.5722 65.6031 47.6995 65.4411 47.6995 65.2445V49.9681C47.7574 49.0313 48.5784 48.2567 49.5614 48.2567H49.6075C50.6946 48.2567 51.5156 49.1356 51.5156 50.1648V57.9125ZM32.8629 44.6935L27.6771 38.8503L36.5753 30.8855L34.1693 28.6871L19.4932 41.8234L21.7244 44.3375L23.9871 42.2947V56.66H33.8643V43.7895L32.8629 44.6935ZM65.6118 39.2295L57.8243 32.1409V23.915H53.2903V27.9711L48.0213 23.1568L30.3187 39.0022L33.01 42.0348L35.7393 39.5708V56.6602H45.8243V49.9679V49.91L45.8278 49.8523C45.948 47.9061 47.5877 46.3813 49.5611 46.3813H49.6073C51.6932 46.3813 53.3904 48.0784 53.3904 50.1643L53.3967 56.6591L60.1706 56.6661L60.1643 39.7222L62.8497 42.1862L65.6118 39.2295ZM72.0504 36.1351V29.3155H68.2914V32.678L63.9232 28.6869L60.3393 31.8948L68.2786 39.1215L62.9512 44.8243L62.0393 43.9876V56.6602H73.9903V42.4205L76.2166 44.4634L78.5064 42.012L72.0504 36.1351Z" fill="white"/>
</svg>
