<svg width="98" height="98" viewBox="0 0 98 98" fill="none" xmlns="http://www.w3.org/2000/svg">
<circle cx="49" cy="49" r="49" fill="#18AD8F"/>
<g clip-path="url(#clip0_52_214)">
<path d="M37.4692 57.1873C38.32 56.9257 38.6459 56.4026 38.7114 56.01C38.6459 55.4863 38.3431 55.2742 38.2443 54.322C38.1287 53.2138 39.0541 50.5624 39.3292 50.0893C39.2917 49.9989 39.253 49.9189 39.2161 49.826C37.9268 49.0081 36.6135 47.5289 36.01 44.8554C35.6873 43.4261 35.9542 41.9654 36.7273 40.7202C36.7273 40.7202 35.8527 34.6181 37.0844 30.6328C35.9338 30.079 34.6809 30.1723 32.9636 30.3438C31.6457 30.4758 31.4587 30.7559 30.4464 30.609C29.2864 30.4404 28.345 30.0882 28.0619 29.9464C27.8988 29.8651 26.3686 31.2226 25.9427 32.3312C24.5914 35.843 24.9542 38.2506 25.2981 40.0723C25.2866 40.2588 25.2719 40.4447 25.2719 40.6332L25.5859 41.9675C25.5871 41.9816 25.5859 41.9947 25.5864 42.0081C24.9018 42.6222 24.4892 43.5098 24.707 44.4748C25.1556 46.4592 26.1215 47.2641 27.0726 47.6127C27.7034 49.3923 28.3155 50.516 29.0297 51.2715C29.2103 52.095 29.3698 53.2133 29.2543 54.3221C28.7721 58.9664 19 56.52 19 64.6736C19 65.7414 22.0411 67.4835 29.4084 67.9852C29.3868 67.8279 29.372 67.6693 29.372 67.5073C29.372 60.1955 34.1252 58.2163 37.4692 57.1873Z" fill="white"/>
<path d="M68.7461 54.322C68.6306 53.2138 68.7896 52.0961 68.9702 51.2739C69.6857 50.5171 70.2977 49.3928 70.9287 47.6122C71.8795 47.2634 72.8448 46.4582 73.2929 44.4746C73.5003 43.5611 73.1414 42.7161 72.5206 42.1075C72.9704 40.6 74.739 33.6151 69.4271 32.1986C67.6606 29.9909 66.1156 30.079 63.4657 30.3438C62.1478 30.4758 61.9605 30.7559 60.9488 30.609C60.7273 30.5768 60.5173 30.5366 60.3148 30.4937C60.5091 30.7586 60.6943 31.0323 60.8582 31.3248C62.6314 34.4927 62.1631 38.5049 61.606 40.9555C62.2705 42.152 62.4878 43.5271 62.1876 44.8561C61.5841 47.528 60.2714 49.0068 58.9828 49.8248C58.9182 49.9869 58.7282 50.3187 58.9898 50.6459C59.2287 51.0332 59.2715 50.9963 59.532 51.2714C59.7124 52.0949 59.8716 53.2132 59.7558 54.322C59.6607 55.242 58.074 56.01 58.5215 56.3817C58.9617 56.567 59.4723 56.7607 60.045 56.9709C63.3291 58.1768 68.8256 60.1955 68.8256 67.5073C68.8256 67.6645 68.8119 67.8189 68.7915 67.9713C76.0146 67.4525 79 65.7318 79 64.6736C79 56.52 69.2281 58.9664 68.7461 54.322Z" fill="white"/>
<path d="M54.2738 55.5887C54.1408 54.3131 54.3245 53.0262 54.5318 52.0782C55.3552 51.2084 56.0607 49.9131 56.7869 47.8632C57.8815 47.4616 58.9931 46.5349 59.5092 44.2508C59.7468 43.1989 59.3341 42.2263 58.6202 41.5255C59.1372 39.79 61.1731 31.7477 55.0579 30.117C53.0243 27.5749 51.2448 27.6765 48.1943 27.9816C46.6766 28.1332 46.4609 28.4559 45.2961 28.2866C43.9602 28.0924 42.8767 27.687 42.5506 27.5239C42.3629 27.4298 40.601 28.9932 40.1101 30.2694C38.555 34.3124 38.9728 37.0849 39.3683 39.1822C39.3553 39.397 39.3374 39.6109 39.3374 39.8281L39.6997 41.3644C39.7009 41.3802 39.6997 41.3953 39.7002 41.4111C38.912 42.1178 38.4372 43.1399 38.6881 44.2508C39.204 46.5357 40.3163 47.4622 41.4113 47.8635C42.1378 49.9125 42.8418 51.2072 43.665 52.0771C43.8727 53.0244 44.0564 54.3125 43.9234 55.5887C43.3681 60.9355 32.1174 58.1191 32.1174 67.5074C32.1174 68.9552 36.969 71.4803 49.0986 71.4803C61.2282 71.4803 66.0798 68.9552 66.0798 67.5074C66.0798 58.119 54.8291 60.9355 54.2738 55.5887ZM47.1295 69.9263L44.0503 57.4191L47.8383 58.9956L47.6346 60.8259L48.2363 60.8128L47.1295 69.9263ZM51.3682 69.9263L50.2611 60.8128L50.8629 60.8259L50.6592 58.9956L54.4472 57.4191L51.3682 69.9263Z" fill="white"/>
</g>
<defs>
<clipPath id="clip0_52_214">
<rect width="60" height="60" fill="white" transform="translate(19 19)"/>
</clipPath>
</defs>
</svg>
