<svg width="98" height="99" viewBox="0 0 98 99" fill="none" xmlns="http://www.w3.org/2000/svg">
<circle cx="49" cy="49.5" r="49" fill="#18AD8F"/>
<path d="M23.7104 76.0935H32.1721V50.4264L23.7104 55.0641V76.0935Z" fill="white"/>
<path d="M34.7524 49.0158V76.0936H43.2119V59.9841L36.6384 47.9806L34.7524 49.0158Z" fill="white"/>
<path d="M45.79 76.0935H54.2539V57.3016L45.79 64.6912V76.0935Z" fill="white"/>
<path d="M56.832 76.0936H65.2937V47.6594L56.832 55.0512V76.0936Z" fill="white"/>
<path d="M67.8701 45.4089V76.0936H76.334V48.6729L70.6502 42.9847L67.8701 45.4089Z" fill="white"/>
<path d="M47.0554 58.9293L70.8019 38.0062L74.8168 42.0212L78.9988 23.9042L60.884 28.084L64.6255 31.832L49.3233 45.3155L41.352 31.3198L19.001 43.5663L23.1852 51.2099L38.0229 43.0802L47.0554 58.9293Z" fill="white"/>
</svg>
