<svg width="98" height="99" viewBox="0 0 98 99" fill="none" xmlns="http://www.w3.org/2000/svg">
<circle cx="49" cy="49.5" r="49" fill="#18AD8F"/>
<g clip-path="url(#clip0_122_417)">
<path d="M72.7662 42.1618V29.9504H64.6756V34.825L49.9552 21.394L20 48.5588H26.9194V76.6063H73.0359V48.5588H80L72.7662 42.1618ZM55.6839 63.4399C54.7052 64.3088 53.4911 64.907 52.0752 65.2169L52.0987 68.3768L47.719 68.3878L47.6985 65.2282C46.3827 64.9256 45.4323 64.3026 44.2994 63.3652C42.7929 62.0675 42.0076 60.5513 41.9574 58.8522L41.9566 58.8234L42.0631 57.4604L46.2821 57.445L46.3131 58.2783C46.3306 59.4032 46.6575 60.2201 47.3123 60.7875C47.9698 61.3781 48.5369 61.6748 49.8323 61.6748C51.1076 61.6645 52.0976 61.356 52.7713 60.7579C53.4183 60.1875 53.7322 59.3911 53.7322 58.3215C53.7322 57.4723 53.4455 56.8498 52.8293 56.363C52.1265 55.8118 50.8611 55.3188 49.0704 54.8992C46.8981 54.3938 45.2322 53.609 44.1189 52.5666C42.9318 51.4402 42.3263 50.023 42.3166 48.352C42.3042 46.4375 43.051 44.8442 44.5359 43.6165C45.4059 42.8932 46.4275 42.3849 47.5771 42.1017L47.5561 39.3374L51.9342 39.3072L51.9458 41.9771C53.2306 42.2287 54.0704 42.7468 55.0259 43.5251C56.4528 44.7187 57.2284 46.3525 57.3363 48.3857L57.3673 49.2767L53.1297 49.3032L53.0132 48.5804C52.8703 47.5143 52.5318 46.7473 52.0051 46.2848C51.4474 45.7959 51.0572 45.5923 50.0871 45.5923H50.0254C48.9107 45.5923 48.0194 45.8514 47.4423 46.3442C46.8835 46.8115 46.6281 47.4313 46.6354 48.2988C46.6354 49.0265 46.8789 49.5782 47.3805 49.9906C47.7861 50.3323 48.6572 50.8245 50.5332 51.2552C52.9682 51.8274 54.8314 52.6818 56.0736 53.7951C57.3805 54.9774 58.0423 56.4739 58.0423 58.2441C58.0553 60.3428 57.2616 62.092 55.6839 63.4399Z" fill="white"/>
</g>
<defs>
<clipPath id="clip0_122_417">
<rect width="60" height="60" fill="white" transform="translate(20 19)"/>
</clipPath>
</defs>
</svg>
