<svg width="98" height="99" viewBox="0 0 98 99" fill="none" xmlns="http://www.w3.org/2000/svg">
<circle cx="49" cy="49.5" r="49" fill="#18AD8F"/>
<g clip-path="url(#clip0_122_425)">
<path d="M62.9931 67.8445C62.9931 68.2723 62.9184 68.6864 62.7759 69.0735C63.3598 68.9173 64.0252 68.6729 64.677 68.2927C66.9719 66.9823 68.2823 64.6127 68.5742 61.2315C68.6556 60.3013 69.0767 59.4322 69.7692 58.8008C70.4617 58.1626 71.358 57.8163 72.2949 57.8163H72.3153H72.8177L72.8312 56.0035C72.838 55.0597 72.0776 54.2925 71.1338 54.2925H66.8021C65.8719 54.2925 65.1115 55.0461 65.1047 55.9763L65.0844 59.0588C65.1387 62.2363 64.2561 64.2325 63 65.475L62.9931 67.8445Z" fill="white"/>
<path d="M75.7916 59.8804L72.8178 59.86H72.3154C72.3154 59.86 72.3086 59.86 72.3019 59.86C71.4192 59.86 70.6859 60.5322 70.6113 61.4148C69.7694 71.1579 61.615 71.4091 60.7731 71.4091C60.7256 71.4091 60.7052 71.4091 60.7052 71.4091L45.9513 71.3887C45.5032 71.3887 45.1366 71.0221 45.1366 70.5672V70.3092C45.1366 69.861 45.5032 69.5012 45.9513 69.5012L59.2522 69.5216C60.1825 69.5216 60.9428 68.7679 60.9496 67.831L60.9564 66.8261L60.9701 64.0559C60.9769 63.1189 60.2232 62.3517 59.2795 62.3517L52.6867 62.3109C52.0892 62.3041 51.4985 62.148 50.9825 61.8425C49.3326 60.8716 45.0891 58.7057 39.929 58.7057C37.4643 58.7057 34.7893 59.2013 32.0869 60.5525L29.7988 60.566C29.8667 60.8444 29.9007 61.1363 29.9007 61.4418L29.9143 76.0327C29.9143 76.2975 29.8871 76.5555 29.8328 76.8067H37.1927C38.1365 76.8067 39.0735 76.895 39.9968 77.0715L43.6225 77.7572C47.7302 78.538 51.8991 78.9386 56.0815 78.9659L61.6082 78.9998C61.6082 78.9998 76.3552 78.3073 77.4484 61.6931C77.5366 60.7154 76.7693 59.8871 75.7916 59.8804Z" fill="white"/>
<path d="M27.6464 60.5728C27.3952 60.1519 26.9742 59.8532 26.4718 59.7649C26.3767 59.7514 26.2817 59.7378 26.1798 59.7378H25.4533H22.2418C21.3049 59.7378 20.5444 60.4982 20.5444 61.4352L20.558 76.026C20.558 76.9631 21.3185 77.7234 22.2554 77.7234H25.5144H26.1934C26.3088 77.7234 26.4243 77.7099 26.5329 77.6895C27.0421 77.5877 27.4699 77.2482 27.7007 76.7933C27.8161 76.5625 27.884 76.2976 27.884 76.0193L27.8704 61.4284C27.884 61.1227 27.7957 60.8241 27.6464 60.5728Z" fill="white"/>
<path d="M60.7186 31.5472V21.0369C60.7186 19.9098 59.809 19 58.6817 19H56.2035C55.0765 19 54.1666 19.9098 54.1666 21.0369V24.9952L49.3732 20.2018C48.7078 19.5364 47.635 19.5364 46.9696 20.2018L30.8443 36.3271C29.9888 37.1826 30.5931 38.6424 31.8016 38.6424H33.9947C34.9316 38.6424 35.6921 39.4028 35.6921 40.3398V53.4777C35.6921 54.4147 36.4525 55.1751 37.3895 55.1751H41.0083C41.9453 55.1751 42.7058 54.4147 42.7058 53.4777V47.6386C42.7058 46.7017 43.4662 45.9412 44.4032 45.9412H51.9396C52.8765 45.9412 53.6371 46.7017 53.6371 47.6386V53.4845C53.6371 54.4216 54.3974 55.1819 55.3345 55.1819H58.9533C59.8903 55.1819 60.6507 54.4216 60.6507 53.4845V40.3466C60.6507 39.4096 61.4112 38.6492 62.3481 38.6492H64.5412C65.7498 38.6492 66.354 37.1894 65.4985 36.3339L60.7186 31.5472Z" fill="white"/>
</g>
<defs>
<clipPath id="clip0_122_425">
<rect width="60" height="60" fill="white" transform="translate(19 19.5)"/>
</clipPath>
</defs>
</svg>
