<?xml version="1.0" encoding="UTF-8"?>
<svg id="Layer_2" data-name="Layer 2" xmlns="http://www.w3.org/2000/svg" viewBox="0 0 432.63 111.78">
  <g id="Layer_1-2" data-name="Layer 1">
    <g>
      <path d="M430.98,1.74c1.81,5.34.9,11.07,1.09,16.62.64,18.72.58,37.54.55,56.33l-.75,1.75-29.1,28.78-74.58-.39c-.96-10.67-.32-21.45-.48-32.17-.19-13.18-.19-26.15,0-39.33.16-10.53-.57-21.15.55-31.6.6-.98,8.04-.47,9.69-.55,25.82-1.29,55.54-1.54,81.42-.54,1.67.06,11.02.69,11.61,1.12ZM411.6,63.94V26.31c0-3.9-3.01-4.51-6.23-4.75-16.83,1.08-35.33-1.38-51.96.02-1.41.12-2.86.58-4.29.71-.17.11-.97,2.8-.97,3.02v38.63h13.24c.8,0,4.65.93,5.37,1.48.46.35,1.87,2.89,1.87,3.25v16.2h22.48v-17.2c0-.25.75-1.7,1.02-1.97,2.56-2.6,15.56-1.47,19.46-1.76Z"/>
      <path d="M179.33,18.08v54.83h26.47c-5.28-5.35-7.22-6.63-6.49-14.7.95-10.38,8.02-17.33,18.23-18.69,10.78-1.44,24.1-1.2,30.63,8.8,4.94,7.56,4.04,15.95,4.57,24.59,6.39-.58,23.18,2.12,26.58-4.63.15-.31.89-2.46.89-2.6v-8.72h12.99c-.46,7.71.13,16.37-5.01,22.67s-10.55,6.89-18.2,7.26c-14.27.69-29.2.39-43.46.5-15.99.13-31.99-.14-47.98-.02l-12.23-14.71V18.08h12.99ZM240.27,72.91v-12.21c0-.44-2.02-4.44-2.49-4.99-3.31-3.9-17.51-4.1-21.84-1.84-1.63.85-3.44,3.14-4.15,4.83-.41.98-1.49,4.66-1.49,5.49v8.72h29.97Z"/>
      <path d="M95.91,72.91h20.23c1.03,0,5.53-1.33,6.5-1.99,1.49-1.01,3.24-4.57,3.24-6.24v-7.73h12.99c-.29,10.12-.28,20.02-8.98,26.68-4.66,3.57-11.73,2.06-17.22,3.25l-112.66.48v-14.45h48.95c-3.31-4.16-8.03-6.45-7.37-12.58.84-7.74,4.82-15.97,12.18-19.26s24.47-2.98,31.32,1.52c10.36,6.8,10.51,19.07,10.83,30.32ZM82.92,72.91v-13.21c0-.31-1.99-3.52-2.48-4.01-3.48-3.49-10.61-3.58-15.27-3.24-13.09.95-11.54,10-11.72,20.45h29.47Z"/>
      <path d="M159.35,56.96v33.64c0,10.4-8.79,21.18-19.73,21.18h-15.24l5.25-10.96c4.54-1.9,11.18-.37,14.06-5.41.29-.51,1.17-2.45,1.17-2.82v-35.64h14.49Z"/>
      <rect x="277.73" y="33.03" width="15.49" height="12.96"/>
      <path d="M61.44,31.54l.5-12.96c4.88-.67,9.59-.06,14.49,0l.5,12.96h-15.49Z"/>
      <rect x="260.25" y="33.03" width="14.49" height="12.96"/>
      <rect x="105.4" y="99.32" width="14.99" height="12.46"/>
      <rect x="87.92" y="99.32" width="13.99" height="12.46"/>
    </g>
  </g>
</svg>