<?xml version="1.0" encoding="UTF-8"?>
<svg id="Layer_2" data-name="Layer 2" xmlns="http://www.w3.org/2000/svg" viewBox="0 0 246.4 59.67">
  <g id="Layer_1-2" data-name="Layer 1">
    <g>
      <path d="M187.85,0l58.2.6.35,41.95-16.91,17.09-41.52.03-1.23-.77V.9s1.11-.9,1.11-.9ZM234.5,35.9V12.65c-.76-.89-1.62-1.13-2.74-1.26-6.76-.79-23.12-.65-30.03-.01-1.3.12-2.33.19-3.23,1.27v23.25h9.25c.26,0,2.25,1.54,2.25,1.75v9.5l.75.75h11.5l.75-.75v-9.5c0-.21,1.99-1.75,2.25-1.75h9.25Z"/>
      <path d="M77,35.9h-18.5c-.42,2.82,1.43,4.89,3.99,5.76.35.12,3.09.74,3.26.74h9.25l-2.84,6.52c-9.94.82-20.46-.3-21.66-12.27s3.6-20.78,16.69-19.19c4.22.51,9.81,5.36,9.81,9.69v8.75ZM69.5,30.4c1.32-9.12-12-8.83-11,0h11Z"/>
      <path d="M83.5,24.4l2.95-6.19.78-.35c5.23.2,10.57-.87,15.02,2.54,6.59,5.05,3.7,15.42,4.15,22.64-1.97,1.85-5.03,5.63-7.62,5.88-7.48.74-17.69.23-17.3-9.76.36-9.2,10.68-8.77,17.52-8.78.15-1.31-.31-3.56-1.27-4.48-.55-.53-4.33-1.52-4.98-1.52h-9.25ZM99,36.4h-7.25c-.61,0-2.67,1.89-2.76,2.77-.13,1.29,1.69,3.73,2.76,3.73h7.25v-6.5Z"/>
      <path d="M38.5,30.4c-.19-8.07-10-5.49-15.5-6l2.57-6.43c10.4-.89,19.23.15,20.37,12.25.26,2.81.4,8.21.08,10.95-.25,2.16-4.95,7.12-6.88,7.62-1.62.41-8.01.33-9.88.13-3.29-.35-7.51-2.98-8.13-6.37-2.21-12.18,8.37-12.23,17.38-12.13ZM38.5,36.4h-7.75c-2.99,0-2.99,6.5,0,6.5h7.75v-6.5Z"/>
      <path d="M150,15.65c1.13-8.44,9.73-10.39,17-9.75v6.51c-4.12-.23-9.45.18-9,5.5h9v7h-9v24h-8V15.65Z"/>
      <path d="M8,9.9v8h8.5v7h-8.5v13.75c0,.12,1.31,1.77,1.54,1.96,2.12,1.8,4.89,1.23,7.46,1.29v7h-8.25c-3.2,0-8.75-5.55-8.75-8.75V9.9h8Z"/>
      <path d="M131,17.9l-3.49,6.76c-2.26.57-4.25-.24-6.36,1.09-.69.43-2.14,2.86-2.14,3.4v19.75h-8v-21.25c0-3.74,5.97-9.75,9.75-9.75h10.25Z"/>
      <path d="M143.5,48.9h-8v-29c2.1-.11,5.1-2.26,6.97-2.31.61-.02.65.08,1.03.56v30.75Z"/>
      <rect x="135" y="6.4" width="8.5" height="7.5"/>
    </g>
  </g>
</svg>