<svg width="40" height="40" viewBox="0 0 40 40" fill="none" xmlns="http://www.w3.org/2000/svg">
<path d="M39.6171 37.0987C39.6731 36.3306 39.4204 35.5411 38.8318 34.9525L32.363 28.4837C31.7916 27.9109 31.0279 27.6539 30.28 27.6912L27.7504 25.1646C32.5626 19.0662 32.1663 10.1741 26.5388 4.54655C20.4763 -1.51884 10.608 -1.5174 4.54548 4.54655C-1.51704 10.6091 -1.51848 20.4774 4.54548 26.5427C10.1716 32.1674 19.0665 32.5636 25.1621 27.7515L27.6887 30.281C27.6528 31.029 27.9069 31.7927 28.4826 32.3641L34.9514 38.8343C35.54 39.4215 36.3281 39.6756 37.0962 39.6182C37.8168 40.1594 38.8232 40.1335 39.4764 39.4789C40.1339 38.8271 40.1583 37.8165 39.6171 37.0987ZM23.9547 23.9544C19.3178 28.5899 11.7737 28.5899 7.13529 23.9544C2.49832 19.3174 2.49832 11.7705 7.13529 7.13349C11.7723 2.49652 19.3163 2.49652 23.9547 7.13349C28.5917 11.7705 28.5903 19.3174 23.9547 23.9544Z" fill="#18AD8F"/>
<path d="M11.3145 14.8756V21.3243H19.4744V14.8756L15.3944 11.4561L11.3145 14.8756ZM14.9666 19.3475H13.2913V17.6722H14.9666V19.3475ZM14.9666 16.818H13.2913V15.1427H14.9666V16.818ZM15.8208 15.1441H17.4961V16.8194H15.8208V15.1441ZM15.8208 17.6722H17.4961V19.3475H15.8208V17.6722Z" fill="#18AD8F"/>
<path d="M15.9429 8.2364C15.6242 7.96938 15.1605 7.96938 14.8418 8.2364L8.72621 13.3672C8.36444 13.6701 8.31563 14.2099 8.61997 14.5717C8.78937 14.7741 9.03199 14.8775 9.27604 14.8775C9.46985 14.8775 9.66509 14.8129 9.82444 14.6779L15.3945 10.0094L20.9632 14.6779C21.3264 14.9823 21.8662 14.9335 22.1691 14.5717C22.472 14.2099 22.4247 13.6701 22.0629 13.3672L15.9429 8.2364Z" fill="#18AD8F"/>
</svg>
