<svg width="40" height="38" viewBox="0 0 40 38" fill="none" xmlns="http://www.w3.org/2000/svg">
<path d="M18.3136 19.2215C17.8284 19.3014 17.1088 19.7434 16.0653 20.4082C15.5063 20.7658 14.6599 21.3059 14.4994 21.3423C13.9785 21.2128 9.85532 20.14 9.85532 20.14C9.72858 20.1035 9.59833 20.1296 9.49153 20.1999C9.38388 20.2711 9.31104 20.3831 9.29181 20.5098L8.18683 27.627C8.15216 27.8571 8.29448 28.0757 8.51932 28.1365L12.1582 29.1122C11.8788 29.5246 11.8423 30.0827 12.0905 30.5609C12.4127 31.1799 13.1018 31.6244 13.8049 31.6791C13.8458 31.7554 13.8945 31.8328 13.9491 31.9081C14.3501 32.4491 15.0437 32.8032 15.7301 32.8232C15.7892 32.9274 15.8614 33.0308 15.9446 33.1313C16.3534 33.6157 16.9784 33.9317 17.6069 33.9776C17.6668 34.1008 17.7423 34.219 17.8326 34.3327C18.2145 34.7978 18.7944 35.0757 19.3837 35.0757C19.8985 35.0757 20.3524 34.8484 20.6355 34.4437C20.7874 34.2164 21.5799 32.8413 21.5799 32.8413C21.8482 32.955 22.0052 33.0227 22.0183 33.0279C22.7656 33.3205 23.5331 32.9307 23.8378 32.126C23.8907 31.9837 23.9263 31.8439 23.9454 31.7059C24.7327 31.9984 25.6407 31.5835 25.9496 30.8144C26.0529 30.5574 26.0824 30.2936 26.0417 30.0409C26.1805 30.014 31.4861 28.5183 31.4861 28.5183C31.7092 28.4558 31.849 28.2361 31.8134 28.0086L30.5165 19.9445C30.4964 19.8187 30.4236 19.7067 30.3168 19.6364C30.2118 19.5678 30.0816 19.5444 29.9548 19.5765L25.4496 20.7257C25.2396 20.6641 24.6371 20.3716 23.0216 19.4046C21.6658 18.5903 21.2795 18.3828 20.8898 18.3828C20.4141 18.3828 19.4097 18.9003 18.7345 19.3135C18.6054 19.2477 18.4724 19.219 18.3136 19.2215ZM29.3613 21.0879L30.3874 27.4578L28.443 28.002C28.6383 27.7953 28.7954 27.5472 28.8995 27.2667C29.1607 26.503 28.9456 25.732 28.3232 25.2416C28.3092 25.2312 24.8891 23.3101 22.1982 21.6523C22.1261 21.6081 22.0437 21.5846 21.9595 21.5846C21.9534 21.5846 21.1279 21.6159 21.1279 21.6159C21.0671 21.6186 21.0073 21.6332 20.9516 21.6593C20.002 22.1065 19.8987 22.4728 19.8657 22.5942C19.7781 22.9111 19.3701 24.3998 19.1696 25.1783C18.6877 25.2634 17.7503 24.8259 17.5948 24.4978C17.6469 24.2495 17.7147 23.9006 17.7894 23.5204C17.9491 22.7008 18.1479 21.6811 18.2451 21.3451C18.4482 20.9613 20.4743 19.7618 20.8362 19.6966C21.0177 19.7435 21.7503 20.18 22.338 20.5307C23.8674 21.4448 24.9151 22.0446 25.5592 22.0446C25.8379 22.0446 28.3822 21.3379 29.3613 21.0879ZM19.3839 33.7546C19.199 33.7546 18.9812 33.6461 18.857 33.4906C18.7562 33.3664 18.7242 33.2303 18.7581 33.0757C18.7962 32.9013 18.7286 32.7206 18.5861 32.614C18.5054 32.5539 18.4098 32.5236 18.3144 32.5236C18.2389 32.5236 18.1624 32.5427 18.0939 32.5808C17.764 32.764 17.219 32.5999 16.9499 32.2761C16.8701 32.1816 16.7815 32.0322 16.8135 31.8621C16.8473 31.679 16.7649 31.4923 16.6069 31.3933C16.4472 31.2969 16.2449 31.3039 16.0956 31.415C15.9985 31.4879 15.8751 31.5027 15.7891 31.5027C15.5018 31.5027 15.1736 31.343 15.0112 31.1233C14.8795 30.9446 14.9203 30.8107 14.9341 30.7675C14.9922 30.579 14.921 30.3743 14.7596 30.2606C14.5974 30.1494 14.3812 30.1538 14.2249 30.271C13.9791 30.4558 13.6007 30.3421 13.362 30.0861C13.2518 29.9689 13.2344 29.8839 13.2327 29.8785L13.9948 28.7597C14.1068 28.5773 14.4115 28.7466 14.6025 28.9644C14.6971 29.0729 14.7248 29.1633 14.7196 29.198C14.6919 29.4114 14.8177 29.6164 15.0216 29.6875C15.2239 29.757 15.4515 29.6745 15.5609 29.4896C15.855 28.9956 16.1025 28.7248 16.2821 28.6884C16.5729 28.645 16.823 28.7493 17.0287 28.9602C17.1711 29.1077 17.2317 29.2623 17.2284 29.3491C17.2214 29.5567 17.355 29.7424 17.5547 29.8015C17.7534 29.8596 17.9654 29.7771 18.0729 29.5992C18.4375 28.9925 19.1882 29.3058 19.4427 29.6912C19.519 29.8075 19.5487 29.9195 19.5209 29.9865C19.4375 30.1825 19.5008 30.4109 19.6754 30.535C19.8508 30.66 20.0869 30.6443 20.2449 30.4994C20.4229 30.338 20.8639 30.5021 21.0132 30.7658C21.0974 30.915 21.0862 31.0739 20.9785 31.252C20.8301 31.4968 19.7103 33.4498 19.5384 33.7042C19.5081 33.7476 19.4301 33.7546 19.3839 33.7546Z" fill="#18AD8F"/>
<path d="M20.5926 7.12992C20.2522 6.8356 19.7454 6.8356 19.4051 7.12992L5.70376 18.9484C5.50404 19.1204 5.38867 19.372 5.38867 19.6359V36.7277C5.38867 37.2303 5.79499 37.6366 6.29758 37.6366H33.7002C34.2028 37.6366 34.6092 37.2303 34.6092 36.7277V19.6359C34.6092 19.3719 34.4937 19.1202 34.2941 18.9484L20.5926 7.12992ZM32.7913 35.8189H7.2065V20.0526L19.9989 9.01876L32.7913 20.0526V35.8189Z" fill="#18AD8F"/>
<path d="M39.367 16.439L21.1848 0.803732C20.5034 0.217767 19.4966 0.217767 18.815 0.803732L0.632988 16.439C-0.128415 17.0944 -0.215152 18.2429 0.439304 19.0033C1.09474 19.7654 2.24323 19.8505 3.00365 19.1969L20 4.58057L36.9965 19.1969C37.3394 19.492 37.7613 19.6362 38.1806 19.6362C38.6926 19.6362 39.2006 19.4217 39.5608 19.0033C40.2152 18.2429 40.1284 17.0944 39.367 16.439Z" fill="#18AD8F"/>
</svg>
