<svg width="40" height="40" viewBox="0 0 40 40" fill="none" xmlns="http://www.w3.org/2000/svg">
<path d="M34.0114 15.2869C34.8986 15.2869 35.3676 14.8015 35.3676 13.9142V9.81265C35.3676 6.36401 33.6264 4.63965 30.1108 4.63965H26.0259C25.1386 4.63965 24.6531 5.12515 24.6531 5.97893C24.6531 6.84943 25.1386 7.33501 26.0259 7.33501H30.0773C31.7179 7.33501 32.6721 8.22229 32.6721 9.96329V13.9142C32.6721 14.8015 33.1576 15.2869 34.0114 15.2869ZM5.98686 15.2869C6.85743 15.2869 7.32614 14.8015 7.32614 13.9142V9.96329C7.32614 8.22229 8.26364 7.33501 9.93779 7.33501H13.9891C14.8596 7.33501 15.3451 6.84943 15.3451 5.97893C15.3451 5.12515 14.8596 4.63965 13.9891 4.63965H9.8875C6.40543 4.63965 4.63086 6.36401 4.63086 9.81265V13.9142C4.63086 14.8015 5.11636 15.2869 5.98686 15.2869ZM12.7335 26.7044H26.8965C28.0014 26.7044 28.8049 25.9343 28.8049 24.8629V16.3584C28.8049 15.2869 28.0014 14.5169 26.8965 14.5169H24.3518C23.9333 14.5169 23.7156 14.3997 23.3641 13.9811L23.0126 13.5459C22.6275 13.0604 22.1587 12.8428 21.5896 12.8428H18.0739C17.4712 12.8428 17.0025 13.0604 16.6174 13.5459L16.2659 13.9811C15.9143 14.3997 15.7134 14.5169 15.3284 14.5169H12.7335C11.6286 14.5169 10.8585 15.2869 10.8585 16.3584V24.8629C10.8585 25.9343 11.6286 26.7044 12.7335 26.7044ZM19.8317 24.2434C17.6052 24.2434 15.7971 22.4186 15.7971 20.1921C15.7971 17.9321 17.6052 16.124 19.8317 16.124C22.0918 16.124 23.8831 17.9321 23.8831 20.1921C23.8831 22.4186 22.0918 24.2434 19.8317 24.2434ZM19.8317 23.0549C21.4221 23.0549 22.7112 21.7825 22.7112 20.1921C22.7112 18.5682 21.4221 17.2959 19.8317 17.2959C18.2413 17.2959 16.969 18.5682 16.969 20.1921C16.969 21.7825 18.2413 23.0549 19.8317 23.0549ZM9.8875 35.3595H13.9891C14.8596 35.3595 15.3451 34.874 15.3451 34.0202C15.3451 33.1497 14.8596 32.6642 13.9891 32.6642H9.93779C8.26364 32.6642 7.32614 31.7769 7.32614 30.0359V26.085C7.32614 25.1977 6.84064 24.7122 5.98686 24.7122C5.09957 24.7122 4.63086 25.1977 4.63086 26.085V30.1698C4.63086 33.6351 6.40543 35.3595 9.8875 35.3595ZM26.0259 35.3595H30.1108C33.6264 35.3595 35.3676 33.6184 35.3676 30.1698V26.085C35.3676 25.1977 34.8821 24.7122 34.0114 24.7122C33.1409 24.7122 32.6721 25.1977 32.6721 26.085V30.0359C32.6721 31.7769 31.7179 32.6642 30.0773 32.6642H26.0259C25.1386 32.6642 24.6531 33.1497 24.6531 34.0202C24.6531 34.874 25.1386 35.3595 26.0259 35.3595Z" fill="#18AD8F"/>
</svg>
