<svg width="40" height="40" viewBox="0 0 40 40" fill="none" xmlns="http://www.w3.org/2000/svg">
<path d="M4.37557 8.93393C3.94314 8.50119 3.24197 8.50119 2.80955 8.93393L0.324082 11.419C-0.108027 11.8517 -0.108027 12.5523 0.324082 12.9851L1.93518 14.5961L5.98666 10.5449L4.37557 8.93393Z" fill="#18AD8F"/>
<path d="M22.376 30.986L20.9948 25.5527L16.9434 29.6045L22.376 30.986Z" fill="#18AD8F"/>
<path d="M20.1669 24.7248L6.72328 11.2812L2.67188 15.333L16.1151 28.7766L20.1669 24.7248ZM6.83344 13.0127L18.5459 24.7254L17.6252 25.6457L5.91281 13.9337L6.83344 13.0127Z" fill="#18AD8F"/>
<path d="M17.5805 10.3516H15.2871V12.5404H17.5805V10.3516Z" fill="#18AD8F"/>
<path d="M17.5805 15.6797H15.2871V17.8679H17.5805V15.6797Z" fill="#18AD8F"/>
<path d="M33.5727 10.3516H20.0527V12.5404H33.5727V10.3516Z" fill="#18AD8F"/>
<path d="M33.5727 15.6797H20.0527V17.8679H33.5727V15.6797Z" fill="#18AD8F"/>
<path d="M33.5738 21.0076H22.5466V23.1959H33.5738V21.0076Z" fill="#18AD8F"/>
<path d="M33.5795 0.864258H15.2798C11.7392 0.864258 8.85938 3.74379 8.85938 7.28449V9.84121L11.2365 12.2189V7.28449C11.2365 5.05121 13.0473 3.24137 15.2798 3.24137H33.5795C35.8134 3.24137 37.6229 5.05121 37.6229 7.28449V27.1315H31.3653C29.5042 27.1315 27.9963 28.6407 27.9963 30.5012V36.7591H15.2798C13.0472 36.7591 11.2365 34.9493 11.2365 32.716V29.8197L10.7495 29.6957L11.2365 29.2086V27.4741L8.85938 25.0971V32.716C8.85938 36.2561 11.7392 39.1362 15.2798 39.1362H27.9963H28.9805L29.6771 38.4399L39.304 28.813L40 28.1168V27.1316V7.28449C40 3.74379 37.1202 0.864258 33.5795 0.864258Z" fill="#18AD8F"/>
</svg>
