<svg width="40" height="40" viewBox="0 0 40 40" fill="none" xmlns="http://www.w3.org/2000/svg">
<path d="M34.9493 1.66699H30.0494C27.9327 1.66699 26.666 2.93366 26.666 5.05033V9.95033C26.666 12.067 27.9327 13.3337 30.0494 13.3337H34.9493C37.066 13.3337 38.3327 12.067 38.3327 9.95033V5.05033C38.3327 2.93366 37.066 1.66699 34.9493 1.66699ZM31.6827 10.9503C31.6327 11.0003 31.516 11.067 31.4327 11.067L29.6993 11.317C29.6493 11.3337 29.5827 11.3337 29.5327 11.3337C29.2827 11.3337 29.066 11.2503 28.916 11.0837C28.716 10.8837 28.6327 10.6003 28.6827 10.3003L28.9327 8.56699C28.9494 8.48366 28.9993 8.36699 29.0493 8.31699L31.8827 5.48366C31.9327 5.60033 31.9827 5.73366 32.0327 5.86699C32.0993 6.00033 32.166 6.11699 32.2327 6.23366C32.2827 6.33366 32.3494 6.43366 32.416 6.50033C32.4827 6.60033 32.5493 6.70033 32.5993 6.75033C32.6327 6.80033 32.6493 6.81699 32.666 6.83366C32.816 7.01699 32.9827 7.18366 33.1327 7.30033C33.166 7.33366 33.1993 7.36699 33.216 7.36699C33.2993 7.43366 33.3993 7.51699 33.466 7.56699C33.566 7.63366 33.6493 7.70033 33.7493 7.75033C33.866 7.81699 33.9993 7.88366 34.1327 7.95033C34.266 8.01699 34.3993 8.06699 34.516 8.10033L31.6827 10.9503ZM35.666 6.96699L35.1327 7.50033C35.0993 7.55033 35.0493 7.56699 34.9993 7.56699C34.9827 7.56699 34.966 7.56699 34.9493 7.56699C33.7493 7.21699 32.7993 6.26699 32.4493 5.06699C32.4327 5.00033 32.4493 4.93366 32.4993 4.88366L33.0493 4.33366C33.9493 3.43366 34.7993 3.45033 35.6827 4.33366C36.1327 4.78366 36.3493 5.21699 36.3493 5.65033C36.3327 6.08366 36.116 6.51699 35.666 6.96699Z" fill="#18AD8F"/>
<path d="M15.0018 17.3015C17.1925 17.3015 18.9685 15.5256 18.9685 13.3348C18.9685 11.1441 17.1925 9.36816 15.0018 9.36816C12.8111 9.36816 11.0352 11.1441 11.0352 13.3348C11.0352 15.5256 12.8111 17.3015 15.0018 17.3015Z" fill="#18AD8F"/>
<path d="M34.9506 13.333H34.1673V21.0163L33.9507 20.833C32.6507 19.7163 30.5506 19.7163 29.2506 20.833L22.3173 26.783C21.0173 27.8997 18.9173 27.8997 17.6173 26.783L17.0506 26.3163C15.8673 25.283 13.984 25.183 12.6507 26.083L6.41732 30.2663C6.05065 29.333 5.83398 28.2497 5.83398 26.983V13.0163C5.83398 8.31634 8.31732 5.83301 13.0173 5.83301H26.6673V5.04967C26.6673 4.38301 26.784 3.81634 27.0506 3.33301H13.0173C6.95065 3.33301 3.33398 6.94967 3.33398 13.0163V26.983C3.33398 28.7997 3.65065 30.383 4.26732 31.7163C5.70065 34.883 8.76732 36.6663 13.0173 36.6663H26.984C33.0507 36.6663 36.6673 33.0497 36.6673 26.983V12.9497C36.184 13.2163 35.6173 13.333 34.9506 13.333Z" fill="#18AD8F"/>
</svg>
