<svg width="40" height="40" viewBox="0 0 40 40" fill="none" xmlns="http://www.w3.org/2000/svg">
<path d="M29.998 8.6544C29.998 9.23919 30.5834 9.82398 31.4015 9.82398C32.5706 9.82398 32.9215 9.35615 32.9215 8.6544C32.9215 8.53745 32.9215 8.53745 32.9215 8.42101C32.805 8.07014 32.4536 7.83622 32.1038 7.60231C31.9863 7.60231 31.7529 7.48535 31.5195 7.48535C30.6998 7.48587 29.998 7.95318 29.998 8.6544Z" fill="#18AD8F"/>
<path d="M32.4558 4.79532C32.3378 4.09358 31.8705 3.50879 31.2863 3.50879C30.7009 3.50879 30.3501 4.09358 30.4681 4.79532C30.5861 5.49707 31.0523 6.08186 31.6371 6.08186C32.105 6.08186 32.5723 5.49707 32.4558 4.79532Z" fill="#18AD8F"/>
<path d="M27.192 13.5666L29.1803 11.5783C30.3494 12.5139 31.7544 13.0987 33.2744 13.0987C36.8995 13.0987 39.824 10.1743 39.824 6.5491C39.8229 2.92342 36.8995 0 33.2738 0C29.6492 0 26.7242 2.92394 26.7242 6.54962C26.7242 8.18703 27.3085 9.59 28.2447 10.6431L26.2559 12.6319C26.6067 12.9823 26.9576 13.3337 27.192 13.5666ZM34.3265 4.44386H35.6125V3.15785H36.0803V4.44439H37.3673V4.91222H36.0803V6.19927H35.6125V4.91169H34.3265V4.44386ZM31.4025 6.66606C31.4025 6.5491 31.4025 6.43214 31.5205 6.31519C31.4025 6.31519 31.4025 6.31519 31.2871 6.31519C30.3509 6.31519 29.6492 5.61344 29.6492 4.79474C29.6492 3.97603 30.5843 3.27429 31.5205 3.27429H33.6247L33.1569 3.62516H32.4551C32.923 3.74264 33.1569 4.32743 33.1569 4.91169C33.1569 5.37952 32.923 5.7304 32.5716 6.08127C32.2207 6.31519 32.1037 6.43214 32.1037 6.66606C32.1037 6.89997 32.4551 7.25084 32.6885 7.3678C33.2728 7.71868 33.3903 8.18651 33.3903 8.77129C33.3903 9.58947 32.6885 10.2917 31.2856 10.2917C30.1165 10.2917 29.0634 9.82391 29.0634 9.00521C29.0634 8.18651 29.9985 7.48476 31.1681 7.48476C31.2856 7.48476 31.4015 7.48476 31.5189 7.48476C31.5189 7.13441 31.4025 6.90049 31.4025 6.66606Z" fill="#18AD8F"/>
<path d="M33.2735 26.9C31.7536 26.9 30.2332 27.4843 29.1795 28.4204L27.1918 26.4316C26.9573 26.7825 26.6064 27.0154 26.373 27.2493L28.3618 29.2381C27.4262 30.4066 26.8414 31.8117 26.8414 33.3321C26.8414 36.9573 29.7664 39.8818 33.3915 39.8818C37.0162 39.8818 39.9417 36.9573 39.9417 33.3321C39.8226 29.7065 36.8992 26.9 33.2735 26.9ZM31.4022 36.3736H30.1157V32.2795H31.4022V36.3736ZM30.8174 31.6958C30.3496 31.6958 29.9993 31.3444 29.9993 30.993C29.9993 30.6421 30.3501 30.2912 30.8174 30.2912C31.2847 30.2912 31.6356 30.6421 31.6356 30.993C31.5187 31.4613 31.2853 31.6958 30.8174 31.6958ZM36.6653 36.3736H35.1449V34.2688C35.1449 33.6846 34.9115 33.3332 34.4426 33.3332C34.0917 33.3332 33.8583 33.5671 33.7408 33.801C33.7408 33.9195 33.7408 34.0354 33.7408 34.1524V36.3751H32.3374C32.3374 36.3751 32.3374 32.6325 32.3374 32.2811H33.7408V32.8659C33.8583 32.6325 34.3262 32.1641 35.0279 32.1641C35.963 32.1641 36.6653 32.7484 36.6653 34.0354V36.3736Z" fill="#18AD8F"/>
<path d="M12.69 26.4326L10.7017 28.4214C9.53216 27.4852 8.12866 26.901 6.60822 26.901C2.98253 26.901 0.0585938 29.826 0.0585938 33.4501C0.0585938 37.0758 2.98253 40.0002 6.60822 40.0002C10.2334 40.0002 13.1578 37.0758 13.1578 33.4501C13.1578 31.9296 12.5731 30.4097 11.6374 29.3566L13.6257 27.3678C13.2748 27.0164 12.9239 26.665 12.69 26.4326ZM9.41572 32.3969C9.41572 34.3852 7.89527 36.6069 5.20525 36.6069C4.38707 36.6069 3.56784 36.373 2.98305 35.9041C3.10001 35.9041 3.21697 35.9041 3.33393 35.9041C4.03567 35.9041 4.62046 35.6707 5.20525 35.3198C4.62046 35.3198 4.03567 34.852 3.80176 34.2667C3.91871 34.2667 4.03515 34.2667 4.03515 34.2667C4.15263 34.2667 4.26906 34.2667 4.38654 34.2667C3.68428 34.1487 3.21697 33.5649 3.21697 32.8632C3.45088 32.9807 3.6848 33.0966 3.91871 33.0966C3.56784 32.8632 3.21697 32.3948 3.21697 31.927C3.21697 31.6941 3.33393 31.4592 3.45088 31.2253C4.15263 32.1614 5.20473 32.7457 6.49126 32.7457C6.49126 32.6277 6.49126 32.5123 6.49126 32.3948C6.49126 31.5761 7.19353 30.8744 8.01171 30.8744C8.47954 30.8744 8.83041 31.1078 9.06485 31.3422C9.41572 31.2247 9.76659 31.1083 10.0005 30.9913C9.88303 31.3422 9.64911 31.5756 9.29824 31.809C9.64911 31.809 9.88303 31.6915 10.1169 31.5756C9.88303 31.9265 9.64911 32.1599 9.4152 32.2774C9.41572 32.2794 9.41572 32.2794 9.41572 32.3969Z" fill="#18AD8F"/>
<path d="M6.60822 13.099C8.12866 13.099 9.64859 12.5142 10.7017 11.5785L12.69 13.5668C12.9239 13.2159 13.2748 12.9825 13.5087 12.7486L11.5199 10.7603C12.4556 9.59075 13.0404 8.18726 13.0404 6.66681C13.0404 3.04113 10.1164 0.117188 6.49074 0.117188C2.86557 0.117188 0.0585938 3.04113 0.0585938 6.66681C0.0585937 10.1745 2.98253 13.099 6.60822 13.099ZM5.08777 5.49619H5.78951V4.79444C5.78951 3.85878 6.14039 3.274 7.30996 3.274H8.24562V4.44357H7.66083C7.193 4.44357 7.193 4.56053 7.193 4.9114V5.49619H8.24562L8.12866 6.66577H7.075V9.94058H5.67151V6.66577H4.97029V5.49619H5.08777Z" fill="#18AD8F"/>
<path d="M25.9064 23.2734C25.7884 23.0406 25.555 22.922 25.4385 22.922C24.3859 22.5712 23.4508 22.3383 22.3982 21.9869C22.2812 21.9869 22.0473 21.7535 22.0473 21.2851C22.0473 21.0507 22.0473 20.9338 21.8139 20.9338C21.6959 20.9338 21.8139 20.9338 21.6959 20.8168C21.5794 20.349 21.5794 20.1145 21.5794 19.9981C21.5794 19.8817 21.6959 19.8806 21.6959 19.7642C22.0473 19.2963 22.1637 18.5951 22.1637 18.3607C22.1637 18.3607 22.2812 18.3607 22.2812 18.2432C22.3982 18.0093 22.3982 18.0093 22.3982 17.6579C22.5162 17.425 22.5162 17.0742 22.2812 17.0742C22.1637 17.1911 22.1637 17.0742 22.1637 16.8402V15.4368C22.1637 14.9689 21.8123 14.6186 21.5794 14.5016C21.2275 14.2672 21.1116 14.1502 20.9941 14.1502C20.8767 14.0333 20.8767 13.9163 20.9941 13.7993C21.1111 13.6829 21.2275 13.6829 21.2275 13.5654C21.2275 13.5654 21.2275 13.5654 21.1101 13.5654C20.9926 13.5654 20.2919 13.6834 19.941 13.7993C19.3562 13.9163 18.7714 14.1502 18.3031 14.5016C17.9522 14.735 17.7183 15.0859 17.7183 15.5548C17.7183 15.7876 17.7183 16.4899 17.7183 16.9582C17.7183 17.0762 17.7183 17.1922 17.6013 17.0762C17.2505 17.0762 17.4844 17.5441 17.4844 17.66C17.4844 17.8939 17.6013 18.0114 17.7178 18.2453C17.7178 18.3628 17.8352 18.3628 17.8352 18.3628C17.9522 18.7136 18.0692 19.4154 18.3031 19.7663C18.3031 19.7663 18.4206 19.8837 18.4206 20.0002C18.4206 20.2341 18.4206 20.585 18.3031 20.8189C18.3031 20.8189 18.3031 20.9364 18.1861 20.9364C17.9522 20.9364 17.9522 21.0533 17.9522 21.2872C17.9522 21.6381 17.7183 21.9895 17.6013 21.9895C17.0165 22.2224 15.2627 22.8077 14.6774 22.9246C14.3265 23.0426 14.2096 23.1586 14.0926 23.2755L13.5078 24.679C15.8464 24.679 17.0165 26.0825 19.4726 26.5503H20.6422C23.0983 26.1995 24.8522 24.679 26.4901 24.679L25.9064 23.2734Z" fill="#18AD8F"/>
</svg>
